<mxfile host="app.diagrams.net" modified="2023-09-02T11:15:00.987Z" agent="Mozilla/5.0 (Windows NT 10.0; Win64; x64) AppleWebKit/537.36 (KHTML, like Gecko) Chrome/116.0.0.0 Safari/537.36" etag="UfvNaTMz9N-XjhjUkp-C" version="21.7.1" type="github">
  <diagram name="Page-1" id="10mLTs2lweQSjcvqGFnW">
    <mxGraphModel dx="1518" dy="684" grid="1" gridSize="10" guides="1" tooltips="1" connect="1" arrows="1" fold="1" page="1" pageScale="1" pageWidth="850" pageHeight="1100" math="0" shadow="0">
      <root>
        <mxCell id="0" />
        <mxCell id="1" parent="0" />
        <mxCell id="t9qF7NUUvE5QqUabhe2g-1" value="" style="rounded=1;whiteSpace=wrap;html=1;fillColor=#dae8fc;strokeColor=#6c8ebf;" vertex="1" parent="1">
          <mxGeometry x="360" y="330" width="210" height="140" as="geometry" />
        </mxCell>
        <mxCell id="t9qF7NUUvE5QqUabhe2g-6" value="" style="rounded=1;whiteSpace=wrap;html=1;fillColor=#dae8fc;strokeColor=#6c8ebf;" vertex="1" parent="1">
          <mxGeometry x="60" y="320" width="250" height="150" as="geometry" />
        </mxCell>
        <mxCell id="t9qF7NUUvE5QqUabhe2g-7" value="RIPE ATLAS&amp;nbsp;" style="rounded=1;whiteSpace=wrap;html=1;" vertex="1" parent="1">
          <mxGeometry x="80" y="340" width="110" height="50" as="geometry" />
        </mxCell>
        <mxCell id="t9qF7NUUvE5QqUabhe2g-8" value="AFRINIC&amp;nbsp;" style="rounded=1;whiteSpace=wrap;html=1;" vertex="1" parent="1">
          <mxGeometry x="180" y="410" width="110" height="50" as="geometry" />
        </mxCell>
        <mxCell id="t9qF7NUUvE5QqUabhe2g-9" value="RIPE ATLAS" style="rounded=1;whiteSpace=wrap;html=1;" vertex="1" parent="1">
          <mxGeometry x="410" y="380" width="110" height="50" as="geometry" />
        </mxCell>
        <mxCell id="t9qF7NUUvE5QqUabhe2g-10" value="" style="rounded=1;whiteSpace=wrap;html=1;fillColor=#dae8fc;strokeColor=#6c8ebf;" vertex="1" parent="1">
          <mxGeometry x="420" y="580" width="250" height="150" as="geometry" />
        </mxCell>
        <mxCell id="t9qF7NUUvE5QqUabhe2g-12" value="IP2location" style="shape=datastore;whiteSpace=wrap;html=1;" vertex="1" parent="1">
          <mxGeometry x="465" y="660" width="60" height="60" as="geometry" />
        </mxCell>
        <mxCell id="t9qF7NUUvE5QqUabhe2g-14" value="" style="rounded=1;whiteSpace=wrap;html=1;fillColor=#dae8fc;strokeColor=#6c8ebf;" vertex="1" parent="1">
          <mxGeometry x="140" y="580" width="250" height="150" as="geometry" />
        </mxCell>
        <mxCell id="t9qF7NUUvE5QqUabhe2g-13" value="Neo4j Graph Database&amp;nbsp;" style="shape=datastore;whiteSpace=wrap;html=1;" vertex="1" parent="1">
          <mxGeometry x="180" y="640" width="70" height="70" as="geometry" />
        </mxCell>
        <mxCell id="t9qF7NUUvE5QqUabhe2g-15" value="MaxMind" style="shape=datastore;whiteSpace=wrap;html=1;" vertex="1" parent="1">
          <mxGeometry x="560" y="660" width="60" height="60" as="geometry" />
        </mxCell>
        <mxCell id="t9qF7NUUvE5QqUabhe2g-16" value="" style="rounded=1;whiteSpace=wrap;html=1;fillColor=#dae8fc;strokeColor=#6c8ebf;" vertex="1" parent="1">
          <mxGeometry x="620" y="330" width="210" height="140" as="geometry" />
        </mxCell>
        <mxCell id="t9qF7NUUvE5QqUabhe2g-17" value="" style="rounded=1;whiteSpace=wrap;html=1;fillColor=#dae8fc;strokeColor=#6c8ebf;" vertex="1" parent="1">
          <mxGeometry x="880" y="330" width="210" height="140" as="geometry" />
        </mxCell>
        <mxCell id="t9qF7NUUvE5QqUabhe2g-18" value="Measurement ingester&amp;nbsp;" style="rounded=1;whiteSpace=wrap;html=1;" vertex="1" parent="1">
          <mxGeometry x="640" y="380" width="110" height="50" as="geometry" />
        </mxCell>
        <mxCell id="t9qF7NUUvE5QqUabhe2g-19" value="Geolocation&amp;nbsp;" style="rounded=1;whiteSpace=wrap;html=1;" vertex="1" parent="1">
          <mxGeometry x="890" y="350" width="110" height="50" as="geometry" />
        </mxCell>
        <mxCell id="t9qF7NUUvE5QqUabhe2g-20" value="ASN INFO" style="rounded=1;whiteSpace=wrap;html=1;" vertex="1" parent="1">
          <mxGeometry x="950" y="410" width="110" height="50" as="geometry" />
        </mxCell>
        <mxCell id="t9qF7NUUvE5QqUabhe2g-22" value="" style="rounded=1;whiteSpace=wrap;html=1;fillColor=#dae8fc;strokeColor=#6c8ebf;" vertex="1" parent="1">
          <mxGeometry x="1170" y="335" width="210" height="140" as="geometry" />
        </mxCell>
        <mxCell id="t9qF7NUUvE5QqUabhe2g-23" value="PoP Network" style="rounded=1;whiteSpace=wrap;html=1;" vertex="1" parent="1">
          <mxGeometry x="1190" y="360" width="110" height="50" as="geometry" />
        </mxCell>
        <mxCell id="t9qF7NUUvE5QqUabhe2g-24" value="PoP Network" style="rounded=1;whiteSpace=wrap;html=1;" vertex="1" parent="1">
          <mxGeometry x="1260" y="420" width="110" height="50" as="geometry" />
        </mxCell>
        <mxCell id="t9qF7NUUvE5QqUabhe2g-25" value="" style="rounded=1;whiteSpace=wrap;html=1;fillColor=#dae8fc;strokeColor=#6c8ebf;" vertex="1" parent="1">
          <mxGeometry x="1040" y="580" width="260" height="160" as="geometry" />
        </mxCell>
        <mxCell id="t9qF7NUUvE5QqUabhe2g-26" value="MapBox&amp;nbsp;" style="rounded=1;whiteSpace=wrap;html=1;" vertex="1" parent="1">
          <mxGeometry x="1070" y="620" width="90" height="50" as="geometry" />
        </mxCell>
        <mxCell id="t9qF7NUUvE5QqUabhe2g-27" value="Node &amp;amp; Link layer&lt;br&gt;handler&amp;nbsp;" style="rounded=1;whiteSpace=wrap;html=1;" vertex="1" parent="1">
          <mxGeometry x="1170" y="600" width="110" height="50" as="geometry" />
        </mxCell>
        <mxCell id="t9qF7NUUvE5QqUabhe2g-28" value="Event listener&amp;nbsp;" style="rounded=1;whiteSpace=wrap;html=1;" vertex="1" parent="1">
          <mxGeometry x="1170" y="660" width="110" height="50" as="geometry" />
        </mxCell>
        <mxCell id="t9qF7NUUvE5QqUabhe2g-29" value="Event listener&amp;nbsp;" style="rounded=1;whiteSpace=wrap;html=1;" vertex="1" parent="1">
          <mxGeometry x="950" y="640" width="110" height="50" as="geometry" />
        </mxCell>
        <mxCell id="t9qF7NUUvE5QqUabhe2g-30" value="API Controller" style="rounded=1;whiteSpace=wrap;html=1;" vertex="1" parent="1">
          <mxGeometry x="770" y="640" width="110" height="50" as="geometry" />
        </mxCell>
        <mxCell id="t9qF7NUUvE5QqUabhe2g-31" value="" style="endArrow=none;dashed=1;html=1;rounded=0;" edge="1" parent="1">
          <mxGeometry width="50" height="50" relative="1" as="geometry">
            <mxPoint x="590" y="520" as="sourcePoint" />
            <mxPoint x="590" y="230" as="targetPoint" />
          </mxGeometry>
        </mxCell>
        <mxCell id="t9qF7NUUvE5QqUabhe2g-32" value="" style="endArrow=none;dashed=1;html=1;rounded=0;" edge="1" parent="1">
          <mxGeometry width="50" height="50" relative="1" as="geometry">
            <mxPoint x="860" y="530" as="sourcePoint" />
            <mxPoint x="860" y="240" as="targetPoint" />
          </mxGeometry>
        </mxCell>
        <mxCell id="t9qF7NUUvE5QqUabhe2g-33" value="" style="endArrow=none;dashed=1;html=1;rounded=0;" edge="1" parent="1">
          <mxGeometry width="50" height="50" relative="1" as="geometry">
            <mxPoint x="1120" y="510" as="sourcePoint" />
            <mxPoint x="1120" y="220" as="targetPoint" />
          </mxGeometry>
        </mxCell>
      </root>
    </mxGraphModel>
  </diagram>
</mxfile>
